<?xml version="1.0" encoding="utf-8"?>
<!-- Generator: Adobe Illustrator 27.5.0, SVG Export Plug-In . SVG Version: 6.00 Build 0)  -->
<svg version="1.1" xmlns="http://www.w3.org/2000/svg" xmlns:xlink="http://www.w3.org/1999/xlink" x="0px" y="0px"
	 viewBox="0 0 750 500" style="enable-background:new 0 0 750 500;" xml:space="preserve">
<g id="BACKGROUND">
</g>
<g id="OBJECTS">
	<g>
		<g>
			<path style="fill:#9ADDED;" d="M537.616,360.965c9.556-22.997,14.841-48.216,14.841-74.672
				c0-107.561-87.196-194.757-194.757-194.757s-194.757,87.196-194.757,194.757c0,26.456,5.285,51.675,14.841,74.672H537.616z"/>
			<path style="fill:#7CCBD8;" d="M268.108,330.12h-44.743V219.835h44.743V330.12z M327.306,254.316h-48.56V359.5h48.56V254.316z
				 M369.984,235.539h-24.77v94.581h24.77V235.539z M432.624,243.291h-41.989v84.702h41.989V243.291z M217.205,249.661h-34.687
				v88.177h34.687V249.661z"/>
		</g>
		<path style="fill:#8AB24B;" d="M136.162,349.061c-0.34-1.459-0.525-2.978-0.525-4.541c0-11.023,8.936-19.96,19.96-19.96
			c1.954,0,3.841,0.286,5.626,0.81c2.301-2.942,5.882-4.836,9.907-4.836c1.703,0,3.325,0.34,4.806,0.953
			c3.039-5.698,9.04-9.578,15.949-9.578c9.185,0,16.763,6.856,17.911,15.728c6.209,0.309,11.59,3.753,14.599,8.78
			c0.835-0.118,1.688-0.183,2.555-0.183c8.155,0,15.046,5.404,17.292,12.826H136.162z"/>
		<path style="fill:#8AB24B;" d="M279.393,332.582c-0.418-1.796-0.646-3.665-0.646-5.588c0-13.565,10.997-24.562,24.562-24.562
			c2.405,0,4.727,0.352,6.924,0.996c2.832-3.621,7.238-5.951,12.191-5.951c2.095,0,4.092,0.419,5.914,1.173
			c3.74-7.012,11.125-11.786,19.627-11.786c11.302,0,20.628,8.436,22.041,19.354c7.64,0.38,14.263,4.618,17.965,10.805
			c1.028-0.146,2.077-0.225,3.145-0.225c10.036,0,18.515,6.65,21.279,15.784H279.393z"/>
		<g>
			<path style="fill:#D7F9FF;" d="M477.52,223.146c0.724-2.017,1.121-4.191,1.121-6.457c0-9.659-7.166-17.641-16.471-18.93
				c-4.129-10.005-13.975-17.048-25.471-17.048c-2.308,0-4.548,0.288-6.69,0.822c-6.041-7.096-15.034-11.602-25.083-11.602
				c-13.242,0-24.652,7.818-29.883,19.088c-1-0.13-2.018-0.204-3.053-0.204c-9.101,0-16.988,5.178-20.89,12.746
				c-9.321,0.161-16.831,7.755-16.831,17.115c0,1.549,0.224,3.043,0.61,4.471H477.52z"/>
			<path style="fill:#D7F9FF;" d="M285.529,164.323c0.474-1.32,0.734-2.743,0.734-4.227c0-6.323-4.69-11.547-10.781-12.391
				c-2.702-6.549-9.147-11.159-16.672-11.159c-1.511,0-2.977,0.188-4.379,0.538c-3.954-4.645-9.84-7.594-16.418-7.594
				c-8.668,0-16.136,5.118-19.56,12.494c-0.655-0.085-1.321-0.134-1.999-0.134c-5.957,0-11.119,3.389-13.674,8.343
				c-6.101,0.105-11.017,5.076-11.017,11.203c0,1.014,0.147,1.992,0.399,2.926H285.529z"/>
		</g>
		<path style="fill:#709334;" d="M344.408,349.061c0.522-2.241,0.806-4.573,0.806-6.973c0-16.929-13.724-30.653-30.653-30.653
			c-3.002,0-5.899,0.439-8.641,1.243c-3.534-4.519-9.033-7.427-15.215-7.427c-2.615,0-5.107,0.522-7.381,1.464
			c-4.668-8.751-13.884-14.709-24.494-14.709c-14.106,0-25.745,10.528-27.508,24.154c-9.535,0.474-17.8,5.764-22.421,13.485
			c-1.283-0.182-2.592-0.281-3.924-0.281c-12.525,0-23.107,8.3-26.557,19.698H344.408z"/>
		<g>
			<rect x="101.289" y="348.608" style="fill:#8AB24B;" width="525.625" height="54.731"/>
			<rect x="101.289" y="373.961" style="fill:#709334;" width="354.915" height="19.907"/>
		</g>
		<g>
			<g>
				<g>
					<g>
						<path style="fill:#4A2D77;" d="M631.601,422.637H473.313c-3.404,0-6.576-0.994-9.241-2.708
							c-4.733-3.043-7.869-8.357-7.869-14.402V94.473c0-4.331,1.609-8.286,4.262-11.3c3.135-3.562,7.729-5.81,12.848-5.81h158.288
							c5.869,0,11.047,2.955,14.129,7.458c1.88,2.747,2.98,6.071,2.98,9.652v311.054c0,4.45-1.699,8.504-4.484,11.547
							C641.099,420.493,636.6,422.637,631.601,422.637z"/>
					</g>
					<g>
						<path style="fill:#FFFFFF;" d="M586.199,94.386L586.199,94.386c-1.86,2.626-4.878,4.186-8.095,4.186h-25.646h-25.646
							c-3.218,0-6.235-1.561-8.095-4.186l0,0c-1.86-2.626-4.878-4.186-8.095-4.186h-32.681c-5.479,0-9.921,4.442-9.921,9.921
							v293.299c0,5.479,4.442,9.921,9.921,9.921h149.036c5.479,0,9.921-4.442,9.921-9.921V100.121c0-5.479-4.442-9.921-9.921-9.921
							h-32.681C591.077,90.2,588.059,91.761,586.199,94.386z"/>
					</g>
					<g>
						<rect x="485.344" y="129.491" style="fill:#7CCBD8;" width="134.227" height="146.811"/>
					</g>
					<g>
						<path style="fill:#8AB24B;" d="M468.019,344.581v52.014c0,3.725,4.442,6.744,9.921,6.744h149.036
							c5.479,0,9.92-3.02,9.92-6.744v-52.014H468.019z"/>
					</g>
					<rect x="468.014" y="373.961" style="fill:#709334;" width="168.881" height="19.907"/>
					<g>
						<circle style="fill:#FFFFFF;" cx="552.457" cy="88.92" r="5.123"/>
					</g>
				</g>
			</g>
			<path style="fill:#FFFFFF;" d="M514.418,276.302l105.153-52.114v-7.475l-2.53,1.254l-20.022-22.069l22.552-1.705v-6.716
				l-60.606,4.583l-21.443-30.431h82.049v-6.698h-86.769l-17.927-25.44h-8.194l44.504,63.157l-65.841,4.979v6.717l29.607-2.239
				l37.511,47.868l-53.127,26.329H514.418z M522.984,201.497l65.573-4.959l22.246,24.52l-52.212,25.877L522.984,201.497z"/>
		</g>
		<g>
			<defs>
				<rect id="SVGID_1_" x="263.137" y="220.48" width="373.759" height="182.86"/>
			</defs>
			<clipPath id="SVGID_00000152243744773034689090000008118167213938415501_">
				<use xlink:href="#SVGID_1_"  style="overflow:visible;"/>
			</clipPath>
			<g style="clip-path:url(#SVGID_00000152243744773034689090000008118167213938415501_);">
				<path style="fill:#F7E60F;" d="M519.745,231.939c-0.289-0.482-0.635-0.918-1.028-1.3c-1.178-1.146-2.771-1.81-4.457-1.81
					h-14.367h-14.367c-1.245,0-2.44,0.362-3.454,1.013c-0.817,0.524-1.517,1.236-2.031,2.097l-6.317,10.558h26.168h26.169
					L519.745,231.939z"/>
				<path style="fill:#EF720C;" d="M523.745,240.732h-49.4c-1.813,0-3.517,0.465-4.999,1.282c-3.202,1.765-5.371,5.173-5.371,9.088
					l0,0h70.141l0,0c0-1.891-0.506-3.664-1.39-5.19C530.932,242.815,527.582,240.732,523.745,240.732z"/>
				<path style="fill:#F9CB0D;" d="M653.808,350.222L653.808,350.222c0-2.584-0.142-5.095-0.409-7.535l0,0l-4.04-32.712
					c-0.883-7.148-4.473-13.368-9.666-17.682c-4.761-3.955-10.868-6.309-17.471-6.309h-32.348v0
					c-7.198-13.125-18.214-23.369-31.232-29.658c-9.426-4.554-19.902-7.034-30.74-7.034h-57.362c-9.485,0-18.8,1.907-27.418,5.535
					c-6.179,2.601-12.001,6.085-17.27,10.385l-26.362,21.512h-29.872c-11.82,0-23.277,2.885-33.476,8.2
					c-9.734,5.073-18.322,12.361-24.982,21.467l-19.605,26.802h0l-9.954,7.03H653.808z"/>
				<path style="fill:#F7A40F;" d="M653.399,342.687l-4.04-32.712c-0.351-2.841-1.135-5.531-2.272-8.017H325.203
					c-5.268,4.091-10.014,8.922-14.044,14.432l-19.605,26.802h0l-9.954,7.03h372.208l0,0
					C653.808,347.638,653.666,345.127,653.399,342.687z"/>
				<path style="fill:#EF720C;" d="M650.695,367.624H285.334c-4.493,0-8.135-3.642-8.135-8.135v-8.163
					c0-4.493,3.642-8.135,8.135-8.135h365.361c4.493,0,8.135,3.642,8.135,8.135v8.163
					C658.83,363.982,655.188,367.624,650.695,367.624z"/>
				<path style="fill:#F7E60F;" d="M563.622,258.986c-1.624-0.951-3.284-1.841-4.98-2.66c-9.426-4.554-19.902-7.034-30.74-7.034
					h-57.363c-9.485,0-18.8,1.907-27.418,5.535c-2.848,1.198-5.614,2.593-8.291,4.16H563.622z"/>
				<g>
					<rect x="487.511" y="232.312" style="fill:#722FC1;" width="2.752" height="2.752"/>
					<rect x="493.014" y="232.312" style="fill:#722FC1;" width="2.752" height="2.752"/>
					<rect x="498.518" y="232.312" style="fill:#722FC1;" width="2.752" height="2.752"/>
					<rect x="504.021" y="232.312" style="fill:#722FC1;" width="2.752" height="2.752"/>
					<rect x="509.525" y="232.312" style="fill:#722FC1;" width="2.752" height="2.752"/>
					<rect x="490.263" y="235.064" style="fill:#722FC1;" width="2.752" height="2.752"/>
					<rect x="495.766" y="235.064" style="fill:#722FC1;" width="2.752" height="2.752"/>
					<rect x="501.27" y="235.064" style="fill:#722FC1;" width="2.752" height="2.752"/>
					<rect x="506.773" y="235.064" style="fill:#722FC1;" width="2.752" height="2.752"/>
				</g>
				<g>
					<circle style="fill:#4A2D77;" cx="380.094" cy="350.81" r="41.571"/>
					<circle style="fill:#722FC1;" cx="380.094" cy="350.81" r="31.639"/>
					<circle style="fill:#FFFFFF;" cx="380.094" cy="350.81" r="25.075"/>
					<circle style="fill:#EF720C;" cx="380.094" cy="350.81" r="21.212"/>
				</g>
				<g>
					<circle style="fill:#4A2D77;" cx="592.191" cy="350.81" r="41.571"/>
					<circle style="fill:#722FC1;" cx="592.191" cy="350.81" r="31.639"/>
					<circle style="fill:#FFFFFF;" cx="592.191" cy="350.81" r="25.075"/>
					<circle style="fill:#EF720C;" cx="592.191" cy="350.81" r="21.212"/>
				</g>
				<path style="fill:#FFFFFF;" d="M411.003,285.592l34.966-27.455c1.232-0.968,0.548-2.947-1.019-2.947h-2.654
					c-5.871,2.56-11.412,5.914-16.445,10.02l-26.362,21.512c-0.019,0.002-0.038,0.005-0.057,0.007h8.279
					C408.905,286.73,410.064,286.329,411.003,285.592z"/>
				<g>
					<path style="fill:#FFFFFF;" d="M515.203,289.49h67.528l-0.661-1.206c-6.631-12.09-16.7-21.651-29.119-27.651
						c-8.881-4.291-18.791-6.558-28.659-6.558h-9.089V289.49z"/>
					<path style="fill:#FFFFFF;" d="M504.196,254.075h-14.588c-8.826,0-23.104,1.736-31.24,5.161
						c-5.805,2.442-11.222,5.701-16.101,9.682l-25.211,20.573h87.139V254.075z"/>
				</g>
				<path style="fill:#FFFFFF;" d="M495.907,304.979h-25.281c-1.442,0-2.611-1.169-2.611-2.611l0,0c0-1.442,1.169-2.611,2.611-2.611
					h25.281c1.442,0,2.611,1.169,2.611,2.611l0,0C498.518,303.81,497.349,304.979,495.907,304.979z"/>
				<path style="fill:#FFFFFF;" d="M578.512,304.979h-25.281c-1.442,0-2.611-1.169-2.611-2.611l0,0c0-1.442,1.169-2.611,2.611-2.611
					h25.281c1.442,0,2.611,1.169,2.611,2.611l0,0C581.123,303.81,579.954,304.979,578.512,304.979z"/>
				<path style="fill:#FFFFFF;" d="M334.269,326.298l11.301-14.255h-30.957c-1.2,1.399-2.356,2.845-3.454,4.346l-7.248,9.908
					H334.269z"/>
				<polygon style="fill:#EF720C;" points="334.278,312.044 322.977,326.298 334.269,326.298 345.57,312.044 				"/>
				<path style="fill:#D82B50;" d="M651.201,332.582h-4.158c-0.646,0-1.237-0.235-1.692-0.623c-0.56-0.478-0.915-1.189-0.915-1.984
					v-20.459c0-0.91,0.466-1.711,1.173-2.177c0.411-0.272,0.904-0.43,1.434-0.43h4.158c0.72,0,1.372,0.292,1.844,0.764
					c0.472,0.472,0.764,1.124,0.764,1.844v20.459c0,0.53-0.158,1.022-0.429,1.434C652.912,332.115,652.111,332.582,651.201,332.582z
					"/>
			</g>
		</g>
		<g>
			<g>
				<path style="fill:#F9CB0D;" d="M252.62,272.932v-4.155H118.041v4.155h7.949v6.29h-7.949v4.155h7.949v6.29h-7.949v4.155h7.949
					v12.457h5.658v-12.457h107.365v12.457h5.658v-12.457h7.949v-4.155h-7.949v-6.29h7.949v-4.155h-7.949v-6.29H252.62z
					 M239.013,289.667H131.648v-6.29h107.365V289.667z M239.013,279.222H131.648v-6.29h107.365V279.222z"/>
				<polygon style="fill:#F9B00D;" points="257.874,304.619 112.048,304.619 112.048,311.91 119.501,311.91 119.501,348.609 
					128.615,348.609 128.615,311.91 241.934,311.91 241.934,348.609 251.048,348.609 251.048,311.91 257.874,311.91 				"/>
			</g>
			<g>
				<path style="fill:#EF720C;" d="M218.247,292.006c-1.716-10.706-13.053-5.964-13.053-5.964l-4.296-2.442l-15.623,2.442
					l-15.623-2.442l-4.296,2.442c0,0-11.338-4.742-13.053,5.964c-1.032,6.438,6.962,43.841,6.962,43.841h12.022
					c0,0,1.419-22.192,0.875-30.251c0,0,3.974,1.607,13.115,1.607c9.141,0,13.115-1.607,13.115-1.607
					c-0.544,8.059,0.875,30.251,0.875,30.251h12.022C211.286,335.846,219.279,298.444,218.247,292.006z"/>
				<path style="fill:#4A2D77;" d="M205.096,247.456c-7.372-5.288-15.544-7.465-15.544-7.465l-4.949,0.574l-4.949-0.574
					c0,0-8.173,2.177-15.544,7.465c-7.372,5.288-14.102,32.531-11.057,37.018c3.045,4.487,21.818,7.532,21.818,7.532l0.381-2.244
					h9.352h10.309l0.381,2.244c0,0,17.816-3.045,20.861-7.532C219.199,279.987,212.468,252.744,205.096,247.456z M163.789,276.782
					c0,0,3.071-4.808,5.862-12.66c0,0,0.295,7.423,2.597,15.482C169.002,278.273,165.666,277.05,163.789,276.782z M196.957,279.604
					c2.302-8.059,2.597-15.482,2.597-15.482c2.791,7.852,5.862,12.66,5.862,12.66C203.539,277.05,200.203,278.273,196.957,279.604z"
					/>
				<path style="fill:#722FC1;" d="M188.545,288.884h-6.541c-0.985,0-1.783-0.798-1.783-1.783v-11.603
					c0-0.985,0.798-1.783,1.783-1.783h6.541c0.985,0,1.783,0.798,1.783,1.783v11.603
					C190.328,288.086,189.529,288.884,188.545,288.884z"/>
				<ellipse style="fill:#E8AB52;" cx="184.603" cy="239.991" rx="6.183" ry="8.301"/>
				<path style="fill:#FFC973;" d="M198.387,228.273c-1.036,0.034-1.804,0.947-2.251,1.663c0.186-1.065,0.288-2.128,0.288-3.162
					c0-2.519-0.593-4.873-1.612-6.903h-20.417c-1.019,2.03-1.612,4.383-1.612,6.903c0,1.034,0.102,2.097,0.288,3.162
					c-0.447-0.716-1.216-1.629-2.251-1.663c-2.697-0.088-0.349,6.78,3.248,6.552c0.145-0.009,0.295-0.033,0.448-0.063
					c2.077,4.831,5.818,8.746,10.089,8.746c4.27,0,8.011-3.914,10.089-8.746c0.153,0.031,0.303,0.054,0.448,0.063
					C198.735,235.053,201.084,228.185,198.387,228.273z"/>
				<path style="fill:#E8AB52;" d="M193.783,283.198l-1.34,0.626l-2.116-1.41v3.918c0,0-2.821,1.41-4.701,1.489
					c-1.881,0.078-5.022-1.175-5.019,0c0.004,1.175,1.022,1.942,1.022,1.942s0.392,2.446,1.881,2.916s1.485,2.821,4.386,2.116
					s4.967-3.213,7.201-3.939L193.783,283.198z"/>
				<path style="fill:#FFC973;" d="M176.095,283.354l2.01,0.47l2.116-1.41v3.918c0,0,2.821,1.41,4.701,1.489
					c1.881,0.078,5.022-1.175,5.019,0c-0.004,1.175-1.022,1.942-1.022,1.942s-0.392,2.446-1.881,2.916s-1.485,2.821-4.386,2.116
					c-2.901-0.705-5.322-3.394-7.556-4.119L176.095,283.354z"/>
				<path style="fill:#722FC1;" d="M159.263,335.846c0,0-4.785,7.459-5.246,13.215h18.231c0,0,1.109-8.841-0.963-13.215H159.263z"/>
				<path style="fill:#EF720C;" d="M171.481,353.316h-17.075c-0.587,0-1.063-0.476-1.063-1.063v-2.129
					c0-0.587,0.476-1.063,1.063-1.063h17.075c0.587,0,1.063,0.476,1.063,1.063v2.129
					C172.544,352.84,172.068,353.316,171.481,353.316z"/>
				<path style="fill:#722FC1;" d="M211.286,335.846c0,0,4.785,7.459,5.246,13.215H198.3c0,0-1.109-8.841,0.963-13.215H211.286z"/>
				<path style="fill:#EF720C;" d="M199.067,353.316h17.075c0.587,0,1.063-0.476,1.063-1.063v-2.129
					c0-0.587-0.476-1.063-1.063-1.063h-17.075c-0.587,0-1.063,0.476-1.063,1.063v2.129
					C198.004,352.84,198.48,353.316,199.067,353.316z"/>
				<path style="fill:#722FC1;" d="M190.328,220.664c0,0-4.472,5.444-10.107,5.602c-5.635,0.158-7.151,3.671-7.151,3.671
					l-1.738-1.564c0,0-2.649-8.583,1.877-14.569c5.797-7.667,16.211-5.575,18.183-1.239c0,0,3.887,0.087,6.391,4.469
					c3.156,5.523,0.604,11.239,0.604,11.239s-1.452,0.915-2.251,1.663C196.136,229.936,194.077,221.926,190.328,220.664z"/>
			</g>
		</g>
	</g>
	<g>
		<path style="fill:#D82B50;" d="M334.269,184.448l-37.103-37.103c-10.246-10.246-15.368-23.674-15.368-37.103
			s5.123-26.857,15.368-37.103l0,0c10.246-10.246,23.674-15.368,37.103-15.368s26.857,5.123,37.103,15.368l0,0
			c6.916,6.916,11.498,15.283,13.746,24.122c4.411,17.347-0.171,36.509-13.746,50.083L334.269,184.448z"/>
		<circle style="fill:#FFFFFF;" cx="334.269" cy="110.265" r="26.237"/>
	</g>
</g>
</svg>
